<svg xmlns="http://www.w3.org/2000/svg" xmlns:xlink="http://www.w3.org/1999/xlink">
  <symbol id="duplicate" viewBox="0 0 24 24" stroke-width="1.5">
    <path stroke-linecap="round" stroke-linejoin="round" d="M15.75 17.25v3.375c0 .621-.504 1.125-1.125 1.125h-9.75a1.125 1.125 0 01-1.125-1.125V7.875c0-.621.504-1.125 1.125-1.125H6.75a9.06 9.06 0 011.5.124m7.5 10.376h3.375c.621 0 1.125-.504 1.125-1.125V11.25c0-4.46-3.243-8.161-7.5-8.876a9.06 9.06 0 00-1.5-.124H9.375c-.621 0-1.125.504-1.125 1.125v3.5m7.5 10.375H9.375a1.125 1.125 0 01-1.125-1.125v-9.25m12 6.625v-1.875a3.375 3.375 0 00-3.375-3.375h-1.5a1.125 1.125 0 01-1.125-1.125v-1.5a3.375 3.375 0 00-3.375-3.375H9.75" />
  </symbol>
  <symbol id="moon" viewBox="0 0 24 24" stroke-width="1.5">
    <path stroke-linecap="round" stroke-linejoin="round" d="M21.752 15.002A9.718 9.718 0 0118 15.75c-5.385 0-9.75-4.365-9.75-9.75 0-1.33.266-2.597.748-3.752A9.753 9.753 0 003 11.25C3 16.635 7.365 21 12.75 21a9.753 9.753 0 009.002-5.998z" />
  </symbol>
  <symbol id="code" viewBox="0 0 24 24" stroke-width="1.5">
    <path stroke-linecap="round" stroke-linejoin="round" d="M14.25 9.75L16.5 12l-2.25 2.25m-4.5 0L7.5 12l2.25-2.25M6 20.25h12A2.25 2.25 0 0020.25 18V6A2.25 2.25 0 0018 3.75H6A2.25 2.25 0 003.75 6v12A2.25 2.25 0 006 20.25z" />
  </symbol>
  <symbol id="document-text" viewBox="0 0 24 24" stroke-width="1.5">
    <path stroke-linecap="round" stroke-linejoin="round" d="M19.5 14.25v-2.625a3.375 3.375 0 00-3.375-3.375h-1.5A1.125 1.125 0 0113.5 7.125v-1.5a3.375 3.375 0 00-3.375-3.375H8.25m0 12.75h7.5m-7.5 3H12M10.5 2.25H5.625c-.621 0-1.125.504-1.125 1.125v17.25c0 .621.504 1.125 1.125 1.125h12.75c.621 0 1.125-.504 1.125-1.125V11.25a9 9 0 00-9-9z" />
  </symbol>
  <symbol id="lifebuoy" viewBox="0 0 24 24" stroke-width="1.5">
    <path stroke-linecap="round" stroke-linejoin="round" d="M16.712 4.33a9.027 9.027 0 011.652 1.306c.51.51.944 1.064 1.306 1.652M16.712 4.33l-3.448 4.138m3.448-4.138a9.014 9.014 0 00-9.424 0M19.67 7.288l-4.138 3.448m4.138-3.448a9.014 9.014 0 010 9.424m-4.138-5.976a3.736 3.736 0 00-.88-1.388 3.737 3.737 0 00-1.388-.88m2.268 2.268a3.765 3.765 0 010 2.528m-2.268-4.796a3.765 3.765 0 00-2.528 0m4.796 4.796c-.181.506-.475.982-.88 1.388a3.736 3.736 0 01-1.388.88m2.268-2.268l4.138 3.448m0 0a9.027 9.027 0 01-1.306 1.652c-.51.51-1.064.944-1.652 1.306m0 0l-3.448-4.138m3.448 4.138a9.014 9.014 0 01-9.424 0m5.976-4.138a3.765 3.765 0 01-2.528 0m0 0a3.736 3.736 0 01-1.388-.88 3.737 3.737 0 01-.88-1.388m2.268 2.268L7.288 19.67m0 0a9.024 9.024 0 01-1.652-1.306 9.027 9.027 0 01-1.306-1.652m0 0l4.138-3.448M4.33 16.712a9.014 9.014 0 010-9.424m4.138 5.976a3.765 3.765 0 010-2.528m0 0c.181-.506.475-.982.88-1.388a3.736 3.736 0 011.388-.88m-2.268 2.268L4.33 7.288m6.406 1.18L7.288 4.33m0 0a9.024 9.024 0 00-1.652 1.306A9.025 9.025 0 004.33 7.288" />
  </symbol>
</svg>
