<svg xmlns="http://www.w3.org/2000/svg" xmlns:xlink="http://www.w3.org/1999/xlink">
  <symbol id="user" viewBox="0 0 24 24">
    <path fill-rule="evenodd" clip-rule="evenodd" d="M12 6C10.343 6 9 7.343 9 9C9 10.657 10.343 12 12 12C13.656 12 15 10.657 15 9C15 7.343 13.656 6 12 6ZM12 10C11.447 10 11 9.553 11 9C11 8.448 11.447 8 12 8C12.553 8 13 8.448 13 9C13 9.553 12.553 10 12 10ZM12 0C5.372 0 0 5.372 0 12C0 18.627 5.372 24 12 24C18.627 24 24 18.627 24 12C24 5.372 18.627 0 12 0ZM12 22C6.478 22 2 17.523 2 12C2 6.478 6.478 2 12 2C17.522 2 22 6.478 22 12C22 17.523 17.522 22 12 22Z"/>
    <path d="M11 16H13C14.103 16 15 16.896 15 18H17C17 15.791 15.209 14 13 14H11C8.791 14 7 15.791 7 18H9C9 16.896 9.897 16 11 16Z"/>
  </symbol>
  <symbol id="arrow-right" viewBox="0 0 24 24">
    <path d="M8.122 24l-4.122-4 8-8-8-8 4.122-4 11.878 12z"/>
  </symbol>
  <symbol id="shopping-basket" viewBox="0 0 24 24">
    <path fill-rule="evenodd" clip-rule="evenodd" d="M12 14C11.447 14 11 14.447 11 15V19C11 19.552 11.447 20 12 20C12.552 20 13 19.552 13 19V15C13 14.447 12.552 14 12 14ZM8 14C7.447 14 7 14.447 7 15V19C7 19.552 7.447 20 8 20C8.552 20 9 19.552 9 19V15C9 14.447 8.552 14 8 14ZM16 14C15.447 14 15 14.447 15 15V19C15 19.552 15.447 20 16 20C16.553 20 17 19.552 17 19V15C17 14.447 16.553 14 16 14ZM22 6H2C0.896 6 0 6.895 0 8V10C0 11.104 0.896 12 2 12H22C23.104 12 24 11.104 24 10V8C24 6.895 23.104 6 22 6ZM22 10H2V8H22V10Z"/>
    <path d="M20.848 12L19.266 22H4.734L3.306 12H21H20.848ZM23 10H1L3 24H21L23 10Z"/>
    <path d="M19 0H15V2H17.614L19.114 6H4.886L6.386 2H9V0H5L2 8H22L19 0Z"/>
  </symbol>
  <symbol id="menu-close" viewBox="0 0 24 24">
    <path fill-rule="evenodd" clip-rule="evenodd" d="M13.537 12L19.683 18.146C20.107 18.57 20.107 19.258 19.683 19.682C19.259 20.106 18.571 20.106 18.147 19.682L12 13.537L5.855 19.683C5.431 20.107 4.743 20.107 4.319 19.683C3.895 19.259 3.895 18.571 4.319 18.147L10.463 12L4.318 5.854C3.894 5.43 3.894 4.742 4.318 4.317C4.742 3.893 5.43 3.893 5.854 4.317L12 10.463L18.147 4.317C18.571 3.893 19.259 3.893 19.683 4.317C20.107 4.741 20.107 5.429 19.683 5.854L13.537 12Z" />
  </symbol>
  <symbol id="menu" viewBox="0 0 24 24">
    <path fill-rule="evenodd" clip-rule="evenodd" d="M3 7H21C21.553 7 22 6.553 22 6C22 5.448 21.553 5 21 5H3C2.447 5 2 5.448 2 6C2 6.553 2.447 7 3 7ZM21 11H3C2.447 11 2 11.448 2 12C2 12.553 2.447 13 3 13H21C21.553 13 22 12.553 22 12C22 11.448 21.553 11 21 11ZM21 17H3C2.447 17 2 17.447 2 18C2 18.553 2.447 19 3 19H21C21.553 19 22 18.553 22 18C22 17.447 21.553 17 21 17Z" />
  </symbol>
  <symbol id="close" viewBox="0 0 24 24">
    <path d="M24 20.188l-8.315-8.209 8.2-8.282-3.697-3.697-8.212 8.318-8.31-8.203-3.666 3.666 8.321 8.24-8.206 8.313 3.666 3.666 8.237-8.318 8.285 8.203z"/>
  </symbol>
  <symbol id="star" viewBox="0 0 24 24">
    <path d="M12 .587l3.668 7.568 8.332 1.151-6.064 5.828 1.48 8.279-7.416-3.967-7.417 3.967 1.481-8.279-6.064-5.828 8.332-1.151z"/>
  </symbol>
  <symbol id="gamer-mouse" viewBox="0 0 44 50">
    <path d="M27.717 3.038L36.892 9.919L34.323 34.212C33.184 41.89 24.904 48 22 48C19.125 48 10.876 41.887 9.677 34.205L7.108 9.919L16.282 3.038L20.21 10.894L22 14.472L23.789 10.894L27.717 3.038ZM27 0L22 10L17 0L5 9L7.693 34.463C9 43.031 17.944 50 22 50C26.055 50 35.063 43.031 36.307 34.463L39 9L27 0Z" />
    <path d="M37.819 17H36.821L36.459 21.475C37.193 24.838 38.67 29.689 41.596 34.343C39.96 36.992 34.987 44.149 28.628 44.923L26 47H27.518C37.203 47 44 34.285 44 34.285C38.518 26.25 37.819 17 37.819 17Z" />
    <path d="M6.182 17H7.18L7.541 21.475C6.807 24.838 5.331 29.689 2.404 34.343C4.04 36.992 9.015 44.149 15.373 44.923L18 47H16.484C6.796 47 0 34.285 0 34.285C5.483 26.25 6.182 17 6.182 17Z" />
    <path d="M23 24C23 24.552 22.552 25 22 25C21.448 25 21 24.552 21 24V20C21 19.448 21.448 19 22 19C22.552 19 23 19.448 23 20V24Z" />
  </symbol>
  <symbol id="headset" viewBox="0 0 44 50">
    <path d="M10 22V38H6C3.794 38 2 36.206 2 34V26C2 23.795 3.794 22 6 22H10ZM12 20H6C2.687 20 0 22.687 0 26V34C0 37.313 2.687 40 6 40H12V20Z" />
    <path d="M14 19.5V39.5H12V19.5H14ZM14 17.5H12C10.896 17.5 10 18.396 10 19.5V39.5C10 40.604 10.896 41.5 12 41.5H14C15.104 41.5 16 40.604 16 39.5V19.5C16 18.396 15.104 17.5 14 17.5Z" />
    <path d="M38 22C40.205 22 42 23.794 42 26V34C42 36.206 40.205 38 38 38H34V22H38ZM38 20H32V40H38C41.313 40 44 37.313 44 34V26C44 22.687 41.313 20 38 20Z" />
    <path d="M32 19.5V39.5H30V19.5H32ZM32 17.5H30C28.896 17.5 28 18.396 28 19.5V39.5C28 40.604 28.896 41.5 30 41.5H32C33.104 41.5 34 40.604 34 39.5V19.5C34 18.396 33.104 17.5 32 17.5Z" />
    <path d="M22 46C22.551 46 23 46.448 23 47C23 47.552 22.551 48 22 48C21.449 48 21 47.552 21 47C21 46.448 21.449 46 22 46ZM22 44C20.344 44 19 45.343 19 47C19 48.657 20.344 50 22 50C23.657 50 25 48.657 25 47C25 45.343 23.657 44 22 44Z" />
    <path d="M37 42V46C37 47.103 36.103 48 35 48H22V50H35C37.209 50 39 48.209 39 46V42H37Z" />
    <path d="M4 21.504V20C4 10.075 12.075 2 22 2C31.925 2 40 10.075 40 20V21.746L42 23.238V20C42 8.954 33.046 0 22 0C10.954 0 2 8.954 2 20V22.792L4 21.504Z" />
    <path d="M4 21.504V20C4 7.01 17.777 6 22 6C26.223 6 40 7.01 40 20V21.746L42 23.238V20C42 8.954 33.046 4 22 4C10.954 4 2 8.954 2 20V22.792L4 21.504Z" />
  </symbol>
  <symbol id="keyboard" viewBox="0 0 44 50">
    <path d="M33.416 16L42 22.22V44.15V48H33.824L30.378 44.58L29.793 44H28.969H15.094H14.283L13.701 44.564L10.158 48H2V44.331V22.22L10.584 16H33.416ZM34.064 14H9.936L0 21.2V44.331V50H10.969L15.094 46H28.969L33 50H44V44.15V21.2L34.064 14Z" />
    <path fill-rule="evenodd" clip-rule="evenodd" d="M21 32.004H19V34.004H21V32.004ZM17 32.004H15V34.004H17V32.004ZM11 34.004H13V32.004H11V34.004ZM7 34.004H9V32.004H7V34.004ZM35 34.004H37V32.004H35V34.004ZM31 34.004H33V32.004H31V34.004ZM29 32.004H27V34.004H29V32.004ZM25 32.004H23V34.004H25V32.004ZM21 28.002H19V30.003H21V28.002ZM17 28.002H15V30.003H17V28.002ZM11 30.003H13V28.002H11V30.003ZM7 30.003H9V28.002H7V30.003ZM35 30.003H37V28.002H35V30.003ZM31 30.003H33V28.002H31V30.003ZM29 28.002H27V30.003H29V28.002ZM25 28.002H23V30.003H25V28.002ZM21 24.001H19V26.002H21V24.001ZM17 24.001H15V26.002H17V24.001ZM11 26.002H13V24.001H11V26.002ZM7 26.002H9V24.001H7V26.002ZM35 24.001V26.002H37V24.001H35ZM31 26.002H33V24.001H31V26.002ZM29 24.001H27V26.002H29V24.001ZM25 24.001H23V26.002H25V24.001ZM21 20H19V22H21V20ZM17 20H15V22H17V20ZM29 20H27V22H29V20ZM25 20H23V22H25V20ZM14.997 40H29.004V38.011H14.997V40Z" />
    <path d="M23 12H21V14H23V12Z" />
    <path d="M33 0H12V2H33C34.654 2 36 3.346 36 5C36 6.654 34.654 8 33 8H30V10H33C35.762 10 38 7.761 38 5C38 2.239 35.762 0 33 0Z" />
    <path d="M31 8H25C22.791 8 21 9.791 21 12H23C23 10.897 23.897 10 25 10H31V8Z" />
  </symbol>
  <symbol id="screen" viewBox="0 0 44 50">
    <path fill-rule="evenodd" clip-rule="evenodd" d="M41.161 36H2.839C1.271 36 0 34.711 0 33.121V28.009V26V2.88C0 1.29 1.271 0 2.839 0H41.161C42.729 0 44 1.29 44 2.88V26V28.009V33.121C44 34.711 42.729 36 41.161 36ZM42 2H2V26H42V2ZM42 28.009H2V34.004H42V28.009ZM23 32.004H21V30.003H23V32.004Z" />
    <path d="M32.471 46L34.361 48H9.64L11.529 46H32.471ZM33.333 44H10.667L5 50H39L33.333 44Z" />
    <path d="M26.438 36L28.439 44H15.562L17.562 36H26.438ZM27.999 34H16L13 46H31L27.999 34Z" />
  </symbol>
  <symbol id="gaming-chair" viewBox="0 0 44 50">
    <path d="M38.224 44C39.235 44.188 41.639 45.391 42 46.086C41.992 46.938 41.87 47.595 41.751 48H2.249C2.129 47.594 2.008 46.938 2 46.086C2.36 45.391 4.765 44.19 5.775 44H38.224ZM38.322 42H5.677C4.894 42 0 43.79 0 46C0 48.209 0.635 50 1.419 50H42.58C43.364 50 44 48.209 44 46C44 43.79 39.106 42 38.322 42Z" />
    <path d="M21.596 2.002H21.646H21.672H21.698H21.709L21.984 2.007C26.412 2.085 27.891 2.368 28.381 2.532C28.588 2.914 28.639 3.75 28.67 4.274C28.692 4.637 28.713 4.98 28.767 5.315C28.775 5.367 29.611 10.538 30.776 11.898C31.502 12.744 33.613 14.692 34.481 15.425C34.816 15.709 35.193 15.956 35.592 16.217C36.011 16.492 36.883 17.064 36.999 17.318C37.152 18.264 36.633 20.188 36.129 22.048L36.013 22.479C35.245 25.333 34.866 27.201 35.99 32.418C36.161 33.213 36.387 34.09 36.628 35.018C37.183 37.165 37.844 39.725 37.977 42H6.024C6.155 39.727 6.814 37.169 7.365 35.023C7.605 34.092 7.831 33.213 8.002 32.416C9.106 27.261 8.719 25.308 7.996 22.549L7.981 22.491L7.789 21.763C7.326 20.016 6.846 18.209 6.98 17.362C7.109 17.067 7.984 16.496 8.405 16.222C8.808 15.959 9.188 15.711 9.526 15.427C10.394 14.695 12.51 12.748 13.239 11.899C14.362 10.592 15.139 5.85 15.224 5.313C15.277 4.98 15.298 4.636 15.32 4.273C15.352 3.744 15.403 2.896 15.615 2.521C16.055 2.364 17.381 2.091 21.325 2.009L21.596 2.002ZM22.019 0C22.019 0 21.887 0 21.67 0.003C21.43 0 21.284 0 21.284 0V0.01C19.537 0.046 15.129 0.145 14.278 1C13.209 2.075 13.407 4.002 13.249 5C13.091 5.998 12.315 9.904 11.722 10.596C11.129 11.288 9.148 13.13 8.237 13.898C7.326 14.667 5.255 15.54 5.017 16.999C4.78 18.458 5.413 20.58 6.046 22.999C6.679 25.417 7.115 27.007 6.046 31.998C5.364 35.18 3.666 40.08 4.058 44H39.942C40.333 40.08 38.629 35.178 37.944 31.997C36.871 27.014 37.283 25.455 37.944 22.998C38.594 20.584 39.21 18.457 38.973 16.998C38.736 15.539 36.68 14.666 35.771 13.897C34.863 13.129 32.886 11.287 32.293 10.595C31.7 9.903 30.9 5.998 30.741 5C30.583 4.002 30.779 2.075 29.712 1C28.853 0.134 23.9 0.041 22.019 0.008V0Z" />
    <path d="M22 33L15 29V31L22 35L29 31V29L22 33Z" />
    <path d="M22 27L15 23V25L22 29L29 25V23L22 27Z" />
    <path d="M22 21L15 17V19L22 23L29 19V17L22 21Z" />
  </symbol>
  <symbol id="mousepad-mouse" viewBox="0 0 44 50">
    <path d="M13 30L14.434 42.515C15.031 46.656 17.821 50 22 50C26.178 50 29.031 46.812 29.565 42.515L31 30L22 25.996L13 30ZM27.581 42.268C27.147 45.75 24.957 48 22 48C18.503 48 16.809 44.913 16.417 42.257L15.154 31.23L22 28.186L28.846 31.231L27.581 42.268Z" />
    <path d="M40 0H4C1.791 0 0 1.791 0 4V36C0 38.209 1.791 40 4 40H11V38H4C2.897 38 2 37.103 2 36V4C2 2.897 2.897 2 4 2H28.586L42 15.414V36C42 37.103 41.103 38 40 38H33V40H40C42.209 40 44 38.209 44 36V4C44 1.791 42.209 0 40 0ZM31.415 2H40C41.103 2 42 2.897 42 4V12.585L31.415 2Z" />
    <path d="M21 32.969V35.032C21 35.566 21.434 36 21.969 36H22.032C22.566 36 23 35.566 23 35.031V32.968C23 32.434 22.566 32 22.031 32H21.968C21.434 32 21 32.434 21 32.969Z" />
  </symbol>
</svg>
